<svg xmlns="http://www.w3.org/2000/svg" xmlns:xlink="http://www.w3.org/1999/xlink" viewBox="0 0 1080 1080"><defs><style>.cls-1,.cls-9{fill:#fff;}.cls-2{clip-path:url(#clip-path);}.cls-3{fill:#ffab7f;}.cls-4{fill:#fd5e63;}.cls-5{fill:#020a2e;}.cls-11,.cls-6{fill:none;}.cls-6{stroke:#ffab7f;stroke-miterlimit:10;}.cls-7{fill:#083351;}.cls-8{fill:#d95c60;}.cls-9{opacity:0.21;}.cls-10{fill:#182841;}.cls-12{fill:#055b83;}</style><clipPath id="clip-path" transform="translate(0 0)"><circle class="cls-1" cx="540" cy="540" r="539.96"/></clipPath></defs><g id="Laag_5" data-name="Laag 5"><circle class="cls-1" cx="540" cy="540" r="539.96"/><g class="cls-2"><path class="cls-3" d="M433.79,880.35Q483,925.68,532.16,971c1.31,1.19,2.62,2.41,3.92,3.61,6.39,5.89,12.77,11.75,19.16,17.65l101.19-88.24,77.37-67.42L707,812.76c-32.14-6.51-57.45-41.25-60.74-73.89-3.37-33.2-6.37-71.1-3.93-82.18a6.22,6.22,0,0,1,1-2.68l-14.17-.7-93.83-4.67L472,645.47c-.06,5.36,0,10.57.07,15.72.24,17.47.85,34-1.6,50.91a132,132,0,0,1-5.05,22c-8.09,24.95-20.21,58.7-39.08,77.75-7.86,8-36.15,10.68-39.86,17.37C380.66,839.62,425.42,872.63,433.79,880.35Z" transform="translate(0 0)"/><path class="cls-4" d="M472,661.19c-13.26,9.57-1.41,51.29,5.63,61.34a137.08,137.08,0,0,0,62.31,49c15.49,6,32.1,9.15,46.89,16.71,37.26,19.06,36.86,67.9,8.85,95.66-25.9,25.65-47.89,54-63.56,87.16,1.31,1.19,2.62,2.41,3.92,3.61q60.15-35.25,120.35-70.59l77.37-67.42L707,812.76c-32.14-6.51-57.45-41.25-60.74-73.89-3.37-33.2-6.37-71.1-3.93-82.18-4.36-1.27-8.75-2.41-13.16-3.38-30.43-6.83-62.37-6.93-93.83-4.67-4.42.3-8.86.67-13.27,1.08C512.84,650.56,490.18,653.93,472,661.19Z" transform="translate(0 0)"/><path class="cls-3" d="M337.68,489.78l18.42,33.64a47.36,47.36,0,0,0,29.41,23L398,549.74l3.46,38.11a108.86,108.86,0,0,0,22.08,56.42l37.9,49.36,9.18,12a108.87,108.87,0,0,0,171.78,1.19l4.32-5.44,3.11-3.92,67.62-130,0,0,1.86-18,13.48-3.64a46.17,46.17,0,0,0,7.71-2.83,32.91,32.91,0,0,0,3.72-2l.08,0a47.12,47.12,0,0,0,16.83-16.6v0c.34-.57.68-1.1,1-1.67l18.28-33.71a47.64,47.64,0,0,0,5.73-22.7,48.37,48.37,0,0,0-.4-6.12,47.38,47.38,0,0,0-52.74-40.74l.15-1.56.07-.53c.08-.68.15-1.41.19-2.09a111.94,111.94,0,0,0-.2-20.79L725.48,321A108.83,108.83,0,0,0,617,223.59l-123.51.26A108.25,108.25,0,0,0,436.59,240a108.85,108.85,0,0,0-51.82,93l.14,68.63c0,3.23.17,6.46.44,9.69l.82,8.89a41.1,41.1,0,0,0-5.7-.48,47.35,47.35,0,0,0-21.73,4.61h0a47.31,47.31,0,0,0-21,65.44Z" transform="translate(0 0)"/><path class="cls-3" d="M383.68,451.36c-1-47.93,2.67-91,7.46-119.12,0,0,.1-.08.13-.15a53.32,53.32,0,0,0,7.26-7.78c11.08-14.76,3.56-24.65.86-27.42A77.39,77.39,0,0,0,417.74,308c19.1,8.43,52.54,15.68,100.93-.29,79.87-26.32,214,40.71,217.66,42.54,0,0,4.65.05,4.65.05a1223,1223,0,0,1-8.64,139.85c-13.91,115.87-57,261.28-171.55,257.83C422.36,743.77,386.27,580,383.68,451.36Z" transform="translate(0 0)"/><path class="cls-5" d="M512.38,356.35l-49.11-8.1a79.93,79.93,0,0,0-55.44,11.13l-30.92,19.38a.41.41,0,0,0,.34.73l32.58-10.29A79.78,79.78,0,0,1,442.61,366l78.62,8.63a.4.4,0,0,0,.44-.45l-1.15-9.33A9.81,9.81,0,0,0,512.38,356.35Z" transform="translate(0 0)"/><path class="cls-6" d="M512.38,356.35l-49.11-8.1a79.93,79.93,0,0,0-55.44,11.13l-30.92,19.38a.41.41,0,0,0,.34.73l32.58-10.29A79.78,79.78,0,0,1,442.61,366l78.62,8.63a.4.4,0,0,0,.44-.45l-1.15-9.33A9.81,9.81,0,0,0,512.38,356.35Z" transform="translate(0 0)"/><path class="cls-5" d="M606.21,359.63l54.15-9.17a66.57,66.57,0,0,1,46.25,9.09l35.28,21.89a.41.41,0,0,1-.34.73l-35.29-11a66.59,66.59,0,0,0-27.34-2.58l-81.36,9.29a.41.41,0,0,1-.45-.45l1.12-9.45A9.68,9.68,0,0,1,606.21,359.63Z" transform="translate(0 0)"/><path class="cls-6" d="M606.21,359.63l54.15-9.17a66.57,66.57,0,0,1,46.25,9.09l35.28,21.89a.41.41,0,0,1-.34.73l-35.29-11a66.59,66.59,0,0,0-27.34-2.58l-81.36,9.29a.41.41,0,0,1-.45-.45l1.12-9.45A9.68,9.68,0,0,1,606.21,359.63Z" transform="translate(0 0)"/><path class="cls-7" d="M351.24,306.85c.47,4,1,8.09,1.21,12.16l6.25,105.33,27.47-4.13a25.22,25.22,0,0,1,2.71-8l11.89-21.92a97.34,97.34,0,0,0,11-34.41l9.91-80.21c2,0,4.1-.08,6.23-.28,0,0,.3,0,.83-.08,11.74-1.28,25.45-5.9,41.35-15.32,47.13-28,110.06-19.7,155.95-7.18l.38.11a425.46,425.46,0,0,1,46.69,15.9,96.61,96.61,0,0,0,20.56,5.74l10.75,87v0a76.19,76.19,0,0,0,6.5,22.71l21,33.2,7.35-12.32a104.62,104.62,0,0,0,14.31-44.08l7-78.83c.18-2.24.33-4.49.36-6.73l.73-36.67.17-7.95a52.8,52.8,0,0,0-13.49-36.31c6.9,4.82-40.3-26.31-59.38-35-9.65-4.18-19.09-8.52-28.62-13.05A275.53,275.53,0,0,0,631,135a310.78,310.78,0,0,0-30.46-8.41c-3.75-.78-7.52-1.48-11.28-2.14a441.76,441.76,0,0,0-64.41-14.13q-11.39-2.76-23-4.57c-10.41-1.39-52.46-2.41-62.85.15s-19.92,7.88-27.95,14.61a158.88,158.88,0,0,0-15.21,15.16c-20.74,15.37-29.67,34-33.06,50.36a119.58,119.58,0,0,0-4.72,15.46,62.68,62.68,0,0,0-.53,27.57,46,46,0,0,0,3.56,10.09A133.36,133.36,0,0,0,351.24,306.85ZM623.78,135.59c2.08.71,4.18,1.36,6.25,2.12,2.61,1,5.21,2,7.81,3Q630.9,138.11,623.78,135.59Z" transform="translate(0 0)"/><path class="cls-5" d="M547,469.8c-3.48,10.33-6.23,20.79-8.72,31.3s-4.64,21.09-6.66,31.69l-1.37,8c-.22,1.43-.46,2.43-.68,4.21a15.5,15.5,0,0,0,.23,5.13,16.75,16.75,0,0,0,5,8.74,16.12,16.12,0,0,0,8.72,4.15c10.62,2,21.3,3.71,32.16,4.69-10.12-4.06-20.41-7.39-30.77-10.46A11.18,11.18,0,0,1,541.8,556a9.46,9.46,0,0,1-2.38-1.88,9.73,9.73,0,0,1-2.55-5.31,10.2,10.2,0,0,1,0-2.92c.11-.89.47-2.53.7-3.76l1.53-7.94c1.87-10.63,3.65-21.27,5-32S546.6,480.69,547,469.8Z" transform="translate(0 0)"/><path class="cls-8" d="M370.83,464.62a54.08,54.08,0,0,1,11.75,14.84,74.65,74.65,0,0,1,4.07,8.52c1.15,2.92,2.07,5.92,3,8.91.71,3,1.41,6.09,2,9.14.33,3.11.78,6.18,1,9.27-1.06-2.94-1.87-5.9-2.8-8.83l-3-8.67c-.95-2.35-1.9-4.69-2.89-7-.13.35-.22.73-.38,1.07a34.57,34.57,0,0,1-12.39,14.22,42.66,42.66,0,0,1,6.09-11c1.23-1.64,2.48-3.25,3.79-4.8l1.75-2.1a73.18,73.18,0,0,0-3.52-6.89,67.26,67.26,0,0,0-10.47-14.55,51.61,51.61,0,0,0-6.8-5.88,31.18,31.18,0,0,0-8-4.41C360.24,457.22,366,460.52,370.83,464.62Z" transform="translate(0 0)"/><path class="cls-8" d="M748.46,463.82a54.38,54.38,0,0,0-11.69,14.88,78.25,78.25,0,0,0-4,8.54c-1.13,2.93-2,5.93-3,8.92-.7,3-1.39,6.1-1.93,9.16-.32,3.1-.76,6.18-1,9.27,1.05-3,1.85-5.92,2.77-8.85l3-8.68c.94-2.35,1.88-4.69,2.86-7,.14.35.22.73.38,1.06a34.69,34.69,0,0,0,12.45,14.17,42.75,42.75,0,0,0-6.13-10.95c-1.24-1.63-2.49-3.24-3.81-4.79l-1.76-2.08a72.08,72.08,0,0,1,3.49-6.91A67.49,67.49,0,0,1,750.5,466a52.48,52.48,0,0,1,6.78-5.92,31.26,31.26,0,0,1,8-4.43C759,456.37,753.24,459.69,748.46,463.82Z" transform="translate(0 0)"/><polygon class="cls-9" points="568.57 435.4 568.57 437.61 568.64 435.4 568.57 435.4"/><path class="cls-10" d="M568,468.16a17.36,17.36,0,0,0,.62,5.13l-.06-28.08Z" transform="translate(0 0)"/><path class="cls-10" d="M379.53,425.05l15.1,8.6,7.26,4.16-.63,26.3a18.67,18.67,0,0,0,18.17,19.08l102.21,2.48h.49a18.66,18.66,0,0,0,18.58-18.17l.63-25.16,4.71.1,22.53.56h.08l-.07,2.21.06,28.08a18.58,18.58,0,0,0,17.54,13.95l102.21,2.48a2,2,0,0,0,.49,0,18.69,18.69,0,0,0,18.58-18.21l.74-30.21,30.37-12.15a2.87,2.87,0,0,0,1.59-3.69,2.81,2.81,0,0,0-3.69-1.59l-28.13,11.2.35-13.8a18.42,18.42,0,0,0-5.08-13.25l0,0a18.32,18.32,0,0,0-13-5.79l-102.21-2.51a18.64,18.64,0,0,0-19.08,18.2l-.49,19.38h-.19L546,436.74l-4.6-.1.5-19.38a18.69,18.69,0,0,0-5.12-13.33,18.5,18.5,0,0,0-13.05-5.75l-102.21-2.52a18.54,18.54,0,0,0-19.07,18.17l-.42,17.48-7.46-4.24-12.24-7a2.85,2.85,0,1,0-2.84,4.94Zm194.2,43.25.66-28v-.15l.56-22.08a13,13,0,0,1,12.9-12.64h.34l102.21,2.51A12.91,12.91,0,0,1,703,421.17l-1.23,50.24a12.7,12.7,0,0,1-4,9,13,13,0,0,1-9.23,3.6l-102.21-2.52A12.94,12.94,0,0,1,573.73,468.3ZM407,464.25,408.19,414a12.94,12.94,0,0,1,12.89-12.61h.34l102.21,2.48a12.93,12.93,0,0,1,12.61,13.28l-.53,22.23v.15l-.7,27.86a12.82,12.82,0,0,1-4,9.05,12.61,12.61,0,0,1-9.22,3.56l-102.21-2.48A13,13,0,0,1,407,464.25Z" transform="translate(0 0)"/><ellipse class="cls-5" cx="635.87" cy="444.42" rx="11.84" ry="19.03" transform="translate(-1.7 2.44) rotate(-0.22)"/><ellipse class="cls-5" cx="465.34" cy="439.02" rx="11.84" ry="19.03" transform="translate(-1.68 1.79) rotate(-0.22)"/><path class="cls-1" d="M602.18,629.71s-58.19,16.15-96.48.37c0,0,18.93,30.95,45,36S602.18,629.71,602.18,629.71Z" transform="translate(0 0)"/><path class="cls-11" d="M378,828.35c.29-.12.58-.22.86-.31l19.44-7.76h0a208.13,208.13,0,0,0,257.27,25.54l28.84-18.52.35-.22,4.3-2.77.12-.08L707,812.76l61.62,27.15,157.29,77.7A538.23,538.23,0,0,0,1080,540C1080,241.75,838.21,0,540,0S0,241.75,0,540a538.21,538.21,0,0,0,154.09,377.7l122.89-49Z" transform="translate(0 0)"/><path class="cls-12" d="M707,812.76l-17.86,11.47-.12.08-4.3,2.77-.35.22-28.84,18.52a208.13,208.13,0,0,1-257.27-25.54h0l-1.15,21.22c0,.2,0,.4,0,.6l-11.7,215.36A539.93,539.93,0,0,0,540,1079.92c151.21,0,287.9-62.16,385.92-162.31l-157.29-77.7Z" transform="translate(0 0)"/><path class="cls-12" d="M240.79,989.49,277,868.63,378.83,828c-.28.09-.57.19-.86.31L277,868.63l-122.89,49A542.38,542.38,0,0,0,240.79,989.49Z" transform="translate(0 0)"/><path class="cls-12" d="M397.12,841.5l-11.73,216h0l11.7-215.36C397.12,841.9,397.12,841.7,397.12,841.5Z" transform="translate(0 0)"/><path class="cls-12" d="M396.75,838.15c1-11.62,1.52-17.87,1.52-17.87h0L378.83,828A14,14,0,0,1,396.75,838.15Z" transform="translate(0 0)"/><path class="cls-12" d="M396.75,838.15a14.16,14.16,0,0,1,.37,3.35l1.15-21.22h0S397.75,826.53,396.75,838.15Z" transform="translate(0 0)"/><path class="cls-12" d="M396.31,843.33c.15-1.83.3-3.56.44-5.18A14,14,0,0,0,378.83,828L277,868.63,240.79,989.49a537.74,537.74,0,0,0,137.56,65.81C386.68,956.78,393.22,879.77,396.31,843.33Z" transform="translate(0 0)"/><path class="cls-12" d="M396.75,838.15c-.14,1.62-.29,3.35-.44,5.18-3.09,36.44-9.63,113.45-18,212q3.51,1.1,7,2.16l11.73-216A14.16,14.16,0,0,0,396.75,838.15Z" transform="translate(0 0)"/></g></g><g id="Laag_13" data-name="Laag 13"><circle class="cls-1" cx="539.96" cy="539.96" r="539.96"/><polygon class="cls-3" points="415.47 787.79 449.6 763.34 448.57 628.43 630.11 628.43 629.08 763.34 663.21 787.79 539.34 952.92 415.47 787.79"/><path class="cls-4" d="M555.57,762a64.33,64.33,0,0,0,41.54-15.21l32.23-27.24.08-.17.69-90.9H448.57l.39,51.84c9.74,15.83,17.74,34.42,32.27,46.67l16.44,13.69A90.5,90.5,0,0,0,555.12,762Z" transform="translate(0 0)"/><path class="cls-3" d="M636.62,659.22l-39.44,33.34a89.29,89.29,0,0,1-57.63,21.1h0a89.24,89.24,0,0,1-57.5-21l-39.68-33.42a244.5,244.5,0,0,1-87-187h0V321.51A157.09,157.09,0,0,1,512.5,164.42h53.68A157.09,157.09,0,0,1,723.27,321.51v151A244.48,244.48,0,0,1,636.62,659.22Z" transform="translate(0 0)"/><path class="cls-3" d="M344.83,396.12c-2.21-53,.81-100.74,5.44-132,0,0,.12-.08.15-.17a58.89,58.89,0,0,0,7.85-8.78c11.92-16.6,3.36-27.36.3-30.37a85.48,85.48,0,0,0,20.58,11.82c21.33,8.88,58.51,16.11,111.69-2.7C578.61,202.9,708,265,712.11,267c-20.62-2.38,0,6.49,0,6.49S727,357.59,718.6,442.39C706,571,674.68,721.28,547.86,720.16,394.55,718.82,350.74,538.43,344.83,396.12Z" transform="translate(0 0)"/><ellipse class="cls-3" cx="346.89" cy="453.83" rx="37.46" ry="72.18" transform="translate(-121.63 127.05) rotate(-17.71)"/><ellipse class="cls-3" cx="729.83" cy="453.83" rx="72.18" ry="37.46" transform="translate(75.47 1011) rotate(-72.29)"/><path class="cls-5" d="M574.29,369.33c.31,4.21,1.9,11.95,8.51,21.34a4.4,4.4,0,0,0,4.51,1.78c9.63-2.07,43.12-8.08,75.44.45a5,5,0,0,0,5.86-2.59c1.44-3,2.75-7.25.84-10.9-3.18-6.1-62.43-22.7-92-14.52A4.28,4.28,0,0,0,574.29,369.33Z" transform="translate(0 0)"/><path class="cls-5" d="M495.71,371.13c-.28,3.8-1.65,10.23-6.87,18.08a5.16,5.16,0,0,1-5.15,2.21c-9.8-1.62-40.64-5.54-69.88,3.18a4,4,0,0,1-4.63-1.84c-1.5-2.59-3.1-6.63-1.33-10.16,2.77-5.51,56.66-22.15,84.45-16.09A4.39,4.39,0,0,1,495.71,371.13Z" transform="translate(0 0)"/><ellipse class="cls-5" cx="460.42" cy="445.49" rx="14.02" ry="19.14" transform="translate(-32.67 36.45) rotate(-4.38)"/><ellipse class="cls-5" cx="618.13" cy="443.5" rx="13.97" ry="19.07" transform="translate(-32.06 48.49) rotate(-4.38)"/><path class="cls-5" d="M534.09,457.79s23.34,33.4,35.77,49c17,21.42,11.18,39-32.13,42.13,0,0,40.38-8.95,27.34-30.5S549.85,498.48,534.09,457.79Z" transform="translate(0 0)"/><path class="cls-1" d="M615.16,564s-1.35,67.9-66.61,68.73-74.79-60.38-74.79-60.38S565.34,586.15,615.16,564Z" transform="translate(0 0)"/><path class="cls-12" d="M922.2,862.7q-3.06-1.22-6.13-2.38L639.73,768.85l-.3,1.9c-2.6,15.94-5.92,28.21-23.17,39.19C551.7,851,510.61,839.28,451.92,798.2c-6.79-4.75-12.37-16.19-17.61-23.48l-1.38.55L192.18,871.18q-3,1.46-6,3a324.41,324.41,0,0,0-46.28,28.51c98.79,108.89,241.42,177.28,400,177.28,169.22,0,320.26-77.86,419.26-199.69A329.39,329.39,0,0,0,922.2,862.7Z" transform="translate(0 0)"/><path class="cls-10" d="M549,468.45a17.55,17.55,0,0,0,.8,5.1l-1.06-28.06Z" transform="translate(0 0)"/><path class="cls-10" d="M359.11,432.11l15.4,8.05,7.41,3.9.32,26.31a18.64,18.64,0,0,0,18.83,18.41L503.3,487.6l.5,0a18.64,18.64,0,0,0,17.91-18.82l-.27-25.16,4.72-.07,22.53-.25h.08v2.21l1.06,28.06a18.58,18.58,0,0,0,18,13.31l102.24-1.18a2.68,2.68,0,0,0,.49,0,18.71,18.71,0,0,0,17.92-18.86l-.35-30.22,29.91-13.23a2.85,2.85,0,0,0,1.46-3.74,2.8,2.8,0,0,0-3.74-1.46l-27.72,12.2-.14-13.8a18.36,18.36,0,0,0-5.55-13.06l0,0a18.29,18.29,0,0,0-13.24-5.32l-102.24,1.15a18.62,18.62,0,0,0-18.4,18.87l.2,19.39h-.19l-22.54.25-4.6.06-.2-19.39a18.56,18.56,0,0,0-18.83-18.42l-102.24,1.15a18.53,18.53,0,0,0-18.41,18.84l.21,17.48-7.61-4-12.48-6.52a2.85,2.85,0,0,0-2.67,5Zm195.63,36.27-.34-28v-.15l-.22-22.09A13,13,0,0,1,566.6,405h.34l102.23-1.14a12.91,12.91,0,0,1,13.07,12.77l.58,50.25a12.77,12.77,0,0,1-3.69,9.2A13,13,0,0,1,670,480l-102.23,1.14A12.94,12.94,0,0,1,554.74,468.38Zm-166.8,1.92L387.36,420A13,13,0,0,1,399.79,407h.35l102.23-1.18a12.91,12.91,0,0,1,13.07,12.81l.27,22.24V441l.29,27.87a12.78,12.78,0,0,1-3.68,9.19,12.61,12.61,0,0,1-9.09,3.88L401,483.08A12.94,12.94,0,0,1,387.94,470.3Z" transform="translate(0 0)"/><path class="cls-7" d="M720.08,217.75c-1.39-7.21-3.31-14.29-7-20.07-6.33-10-18.8-16.69-30.26-13.68,3.27-34-39.37-56.82-72.15-62.38-21.3-3.62-43.06-3.22-64.64-2.34-41.12,1.67-82.85,5.17-121.27,19.92-39.74,15.26-77.6,38-90.05,79.78-7.34,24.64-9.54,50.5-10.49,76.19-1.32,35.55,8,65.08,16,98.69,1.15,4.81,14.95,60.31,20.41,57.1a13,13,0,0,0,5-5.39c2.09-4,1.77-8.81,1.46-13.33C364,386.38,368.7,351.5,387,309.05c4.11-9.51,9.14-19.5,18.31-24.32,14.94-7.86,32-3.72,47.4,3.23,25.49,11.5,39.82,12.87,62.35,12.26,28.11-.76,73.59-13.75,103.58-23.73C699.18,249.71,709,389,705,427.52c-.51,5-1,10.41,1.54,14.76s9.44,6.37,12.61,2.45c0-3.57,6.85-11.87,8-16.23a53.2,53.2,0,0,0,1.71-18c-1.1-11.44-2.65-22.29-2.78-34.1q-.51-45-1-90c-.18-16.69,1.31-34.7-2-51.12C722,229.8,721.22,223.73,720.08,217.75Z" transform="translate(0 0)"/></g></svg>