<?xml version="1.0" encoding="utf-8"?>
<!-- Generator: Adobe Illustrator 26.5.0, SVG Export Plug-In . SVG Version: 6.00 Build 0)  -->
<svg version="1.1" id="Jahmiro" xmlns="http://www.w3.org/2000/svg" xmlns:xlink="http://www.w3.org/1999/xlink" x="0px" y="0px"
	 viewBox="0 0 1081.1 1080" style="enable-background:new 0 0 1081.1 1080;" xml:space="preserve">
<style type="text/css">
	.st0{fill:#FFFFFF;}
	.st1{clip-path:url(#SVGID_00000020367481764253051610000002420858453482239657_);}
	.st2{fill:#055B83;}
	.st3{fill:#FFAB7F;}
	.st4{fill:#FD5E63;}
	.st5{clip-path:url(#SVGID_00000041287251587931510840000013022428581910528190_);}
	.st6{fill-rule:evenodd;clip-rule:evenodd;fill:#D55E49;}
	.st7{fill:#B58870;}
	.st8{fill:#020A2E;}
	.st9{fill:#083351;}
</style>
<g>
	<circle class="st0" cx="540" cy="540" r="540"/>
	<g>
		<defs>
			<circle id="SVGID_1_" cx="540" cy="540" r="540"/>
		</defs>
		<clipPath id="SVGID_00000058585958617311508000000011778231536871987337_">
			<use xlink:href="#SVGID_1_"  style="overflow:visible;"/>
		</clipPath>
		<g style="clip-path:url(#SVGID_00000058585958617311508000000011778231536871987337_);">
			<g>
				<path class="st2" d="M540,1080c163.3,0,309.7-72.5,408.7-187.1C807.1,827.6,543.8,737,543.8,737S290.5,828.3,134,896.1
					C233,1008.8,378.2,1080,540,1080L540,1080z"/>
				<path class="st3" d="M673.1,770V635.1H414.3V770c0,11.6-6.6,22.2-17.1,27.1C372,808.6,357,824.3,357,843.6
					c0,45.7,83.6,115,186.7,115s186.7-69.3,186.7-115c0-19.4-15-35-40.2-46.6C679.8,792.2,673.1,781.5,673.1,770z"/>
			</g>
			<g>
				<path class="st4" d="M673.1,645.8v95.9c-2.8,2.9-5.6,5.7-8.5,8.4c-31.7,30.4-58,47.9-97.8,47.9s-66.2-17.5-97.9-47.9
					c-21.9-21-41.8-44.9-54.6-72.1v-32.2L673.1,645.8L673.1,645.8z"/>
				<path class="st4" d="M566.8,799.2c-40.5,0-66.9-17.7-98.8-48.3c-25.4-24.3-43.3-48-54.9-72.4l-0.1-0.5v-33.4h261.4v97.5
					l-0.3,0.3c-2.9,3-5.7,5.8-8.5,8.4C633.7,781.5,607.3,799.2,566.8,799.2L566.8,799.2z M415.6,677.8
					c11.5,24.1,29.2,47.5,54.3,71.5c31.4,30.1,57.4,47.5,96.9,47.5s65.5-17.4,96.9-47.5c2.7-2.6,5.3-5.2,8.2-8.1V647H415.6
					L415.6,677.8L415.6,677.8z"/>
			</g>
			<g>
				<path class="st3" d="M733.3,310.5c-13-32-35.7-44.7-56.7-65.9c-35-35.4-78.7-50.8-132.8-50.8S446,209.1,411,244.5
					c-21,21.2-43.8,33.9-56.7,65.9c-11,27.2-17.5,46.9-8.7,89c6.9,32.8,18,40.4,11.5,75.8c-9.5,50.9,4,88.5,6.8,113.3
					c6,53.2,37.4,96.7,74.4,132.6c34.2,33.2,57.7,36,105.5,34.7c43-1.1,69.6-4.6,105.5-34.7c39.5-33.1,68.4-79.5,74.4-132.7
					c2.6-23.4,16-63.7,6.8-113.3c-6.6-35.4,4.6-43,11.5-75.8C750.8,357.3,744.3,337.6,733.3,310.5L733.3,310.5z"/>
				<g>
					<defs>
						<path id="SVGID_00000113312266180649510740000010889475031940560039_" d="M733.3,310.5c-13-32-35.7-44.7-56.7-65.9
							c-35-35.4-78.7-50.8-132.8-50.8S446,209.1,411,244.5c-21,21.2-43.8,33.9-56.7,65.9c-11,27.2-17.5,46.9-8.7,89
							c6.9,32.8,18,40.4,11.5,75.8c-9.5,50.9,4,88.5,6.8,113.3c6,53.2,37.4,96.7,74.4,132.6c34.2,33.2,57.7,36,105.5,34.7
							c43-1.1,69.6-4.6,105.5-34.7c39.5-33.1,68.4-79.5,74.4-132.7c2.6-23.4,16-63.7,6.8-113.3c-6.6-35.4,4.6-43,11.5-75.8
							C750.8,357.3,744.3,337.6,733.3,310.5L733.3,310.5z"/>
					</defs>
					<clipPath id="SVGID_00000097489309332858571930000014675169017264741509_">
						<use xlink:href="#SVGID_00000113312266180649510740000010889475031940560039_"  style="overflow:visible;"/>
					</clipPath>
					<g style="clip-path:url(#SVGID_00000097489309332858571930000014675169017264741509_);">
						<path class="st6" d="M489,628.6c-1.5,0.2-1.9,0.4-2.5,0.9c-2.4,1.7-2.7,5.5-0.2,7.8c22.6,21.5,60,25.8,86.9,18.3
							c10.1-2.8,19.7-7.8,27-15.5c0,0,2.5-3,1.2-5.8c-1.6-3.3-6.1-3-9.2,0c-13,12.7-32.6,15.8-51.1,14.4c-17.8-1.3-36-7-48.2-18.8
							C492.7,629.9,490.6,628.5,489,628.6L489,628.6z"/>
						<path class="st6" d="M512.8,666.9c10.6,22.1,51.7,19.6,58.5,1.3C571.2,675.2,524.7,681.7,512.8,666.9z"/>
						<path class="st7" d="M742.3,460.7c-0.2,4.3-18.2,96.3-18.6,99.8c0,0,0-11.8-38.6,34.1c-0.2,0.3-2.6,3-5.5,7
							c-0.9,1.2-1.8,2.5-2.8,4c-18.4,26.7-71.9-1.6-90.6-6.9c-13.4-3.8-18.3-12.7-28.4-10.3c-5.9,1.4-7.6,5.2-14.2,5.2
							c-6.7,0.1-8.6-3.9-14.7-5.2c-10-2.2-14.8,6.5-28.2,10.3c-18.6,5.3-71.8,33.6-90.1,6.9c-1-1.5-2-2.8-2.8-4
							c-2.6-3.5-4.7-6-5.3-6.8c-0.1-0.1-0.1-0.2-0.1-0.2c-37.8-45-37.6-34.1-37.6-34.1c-0.3-2.9-24-94.1-24.3-97.3H358l-15.9-10.4
							c0.3,1.8,0.6,3.6,0.9,5.5c4.9,28.2-16.8,51.5-11.4,75.9c2.4,11-3.2,19.8,0,35.2c8.1,38.5,17.5,40.9,23.5,58.7
							c7.2,21.6,29.2,56.2,46.5,76.5c32.1,37.6,63.8,59,82.5,67c58,24.9,115.1,1.6,118.7,0c18.7-8,56.4-52.9,88.7-90.5
							c17.4-20.3,29-34,36.3-55.7c6-17.8,14.6-3.2,14.6-26.7c0-54.7,12.4-47.8,5.9-64.6l0,0c6.7-24.6-8.4-48.2-3.7-75.9
							c0.3-1.6,0.5-3.2,0.8-4.8L742.3,460.7L742.3,460.7z M588.9,691.6c-11.1,5.7-24.3,4.7-25.5,1.9c-1-2.5-39.5-2.6-40.5-0.2
							c-1.2,2.9-14.1,3.8-24.9-1.7c-26.3-13.4-24.5-56.7-18.8-62.8c5.3-5.5,9.6-2,23.7-10.7c16.2-9.9,16.9-14.6,23.7-14.9
							c7.3-0.3,8.4,5.7,17,5.6c8.4-0.1,9.3-5.8,16.5-5.6c6.8,0.2,7.7,5,23.8,14.9c14.2,8.7,18.5,5.2,23.8,10.7
							C613.5,634.8,615.3,678,588.9,691.6L588.9,691.6z"/>
					</g>
				</g>
			</g>
		</g>
	</g>
</g>
<path class="st8" d="M510.2,385.1c-0.4,3.9-1.9,4.6-7.8,12.5c-1.3,1.7-3.5,2.5-5.6,2.2c-10.6-1.8-43.9-6.2-75.9,2.2
	c-2,0.5-4-0.3-5-1.9c-1.6-2.7-3.2-6.8-1.2-10.4c3.1-5.6,61.9-15.9,91.8-9.4C508.9,380.9,510.4,382.9,510.2,385.1L510.2,385.1z"/>
<ellipse transform="matrix(0.9971 -7.637099e-02 7.637099e-02 0.9971 -33.3579 37.5536)" class="st8" cx="474.3" cy="454.9" rx="17.9" ry="24.5"/>
<ellipse transform="matrix(0.9971 -7.637099e-02 7.637099e-02 0.9971 -32.7136 48.8634)" class="st8" cx="622.5" cy="452.2" rx="17.2" ry="23.5"/>
<path class="st8" d="M543.4,472.8c0,0,23.5,36.3,36,53.3c17.2,23.3,11,42.7-33.4,46.6c0,0,41.5-10.3,28.4-33.8
	S559,517.2,543.4,472.8z"/>
<path class="st9" d="M327.6,416.2c4.3,2,7.2,11.3,7.8,16.9l1.5-0.1l7.9-0.8c0.4-2.2,1.2-5.8,2.2-10.4c6.2-27.7,23.9-93,58.6-130.9
	c97,21.2,209.4,16.8,276.9-6.7c-6.5,22.5,33.5,84.1,56.7,136.3c1.7,4.1,3.5,8.1,5,12.1l1.5,0.1l4.6,0.4c0.5-4.3,3.1-14.6,7.8-16.8
	c0.6-0.3,1.2-0.4,1.9-0.4v-13.1c-3.3,0-6,0.8-8.1,1.8c-0.7,0.3-1.3,0.7-1.9,1.1c7.7-95.5-52.4-228.2-165.6-245.4
	c-125.4-18.9-174,41.3-188.1,71.5c-56,22.4-61.5,123-60.6,173.7c-0.5-0.4-1.1-0.7-1.7-1c-3.5-1.7-9-2.8-16.1-0.3
	c1.2,4.2,2.4,8.5,3.6,12.7C324.1,415.7,326.2,415.5,327.6,416.2L327.6,416.2z"/>
<path class="st3" d="M370.7,468.8c8,42.7,3,74.8-10.8,77.3c-12.6,2.3-29.2-17-38.3-50.2c-7.7-28.1,1.1-17.2-2.2-44
	c-5.3-42.5-3.8-60.5,11.5-60.5C344.8,391.5,362.6,426.1,370.7,468.8L370.7,468.8z"/>
<path class="st3" d="M716.9,468.8c-8,42.7-3,74.8,10.8,77.3c12.6,2.3,29.2-17,38.3-50.2c7.7-28.1-1.1-17.2,2.2-44
	c5.3-42.5,3.8-60.5-11.5-60.5C742.8,391.5,725,426.1,716.9,468.8L716.9,468.8z"/>
<path class="st8" d="M578.2,385.1c0.4,3.9,1.9,4.6,7.8,12.5c1.3,1.7,3.5,2.5,5.6,2.2c10.6-1.8,43.9-6.2,75.9,2.2c2,0.5,4-0.3,5-1.9
	c1.6-2.7,3.2-6.8,1.2-10.4c-3.1-5.6-61.9-15.9-91.8-9.4C579.5,380.9,578,382.9,578.2,385.1L578.2,385.1z"/>
</svg>
