<?xml version="1.0" encoding="utf-8"?>
<!-- Generator: Adobe Illustrator 26.5.0, SVG Export Plug-In . SVG Version: 6.00 Build 0)  -->
<svg version="1.1" id="Hylke" xmlns="http://www.w3.org/2000/svg" xmlns:xlink="http://www.w3.org/1999/xlink" x="0px" y="0px"
	 viewBox="0 0 1081.1 1080" style="enable-background:new 0 0 1081.1 1080;" xml:space="preserve">
<style type="text/css">
	.st0{fill:#FFFFFF;}
	.st1{clip-path:url(#SVGID_00000072981257960191055740000001030020138123979411_);}
	.st2{fill:#055B83;}
	.st3{fill:#FFAB7F;}
	.st4{fill:#FD5E63;}
	.st5{fill:#020A2E;}
	.st6{fill:#1E1F3B;}
	.st7{fill-rule:evenodd;clip-rule:evenodd;fill:#D55E49;}
</style>
<g>
	<circle class="st0" cx="540" cy="540" r="540"/>
	<g>
		<defs>
			<circle id="SVGID_1_" cx="540" cy="540" r="540"/>
		</defs>
		<clipPath id="SVGID_00000065787722477101937440000005992115419617867698_">
			<use xlink:href="#SVGID_1_"  style="overflow:visible;"/>
		</clipPath>
		<g style="clip-path:url(#SVGID_00000065787722477101937440000005992115419617867698_);">
			<g>
				<path class="st2" d="M540,1080c163.3,0,309.7-72.5,408.7-187.1C807.1,827.6,543.8,737,543.8,737S290.5,828.3,134,896.1
					C233,1008.8,378.2,1080,540,1080L540,1080z"/>
				<path class="st3" d="M683.3,766.7V621.3H404.2v145.4c0,12.5-7.2,24-18.5,29.2c-27.1,12.5-43.3,29.4-43.3,50.3
					c0,49.3,90.1,124.1,201.3,124.1s201.3-74.7,201.3-124.1c0-20.9-16.2-37.8-43.3-50.3C690.5,790.7,683.4,779.2,683.3,766.7
					L683.3,766.7z"/>
			</g>
			<g>
				<path class="st4" d="M683.3,621.3v113.9c-3,3.4-6,6.7-9.2,10c-34.2,36.1-62.5,56.9-105.5,56.9s-71.3-20.8-105.5-56.9
					c-23.6-25-45-53.3-58.9-85.6v-38.3L683.3,621.3L683.3,621.3z"/>
				<path class="st4" d="M568.7,803.5c-43.7,0-72.1-21-106.5-57.3c-27.4-28.9-46.7-57-59.2-86l-0.1-0.5v-39.6h281.8v115.8l-0.3,0.4
					c-3.2,3.6-6.2,6.9-9.2,10C640.8,782.4,612.3,803.5,568.7,803.5L568.7,803.5z M405.6,659.3c12.4,28.6,31.5,56.4,58.6,85
					C498,780,526,800.7,568.7,800.7s70.6-20.7,104.5-56.5c2.9-3,5.8-6.2,8.8-9.6v-112H405.6V659.3z"/>
			</g>
			<path class="st3" d="M370.7,427.7c8,42.7,3,74.8-10.8,77.3c-12.6,2.4-29.2-17-38.3-50.2c-7.7-28.1,1.1-17.2-2.2-44
				c-5.3-42.5-3.8-60.5,11.5-60.5C344.8,350.4,362.6,385,370.7,427.7L370.7,427.7z"/>
			<path class="st3" d="M733.3,258.3c-13-34.8-35.7-48.6-56.7-71.7c-35-38.5-78.7-55.3-132.8-55.3S446,148.1,411,186.6
				c-21,23.1-43.8,36.9-56.7,71.7c-11,29.5-17.5,51-8.7,96.8c6.9,35.7,18,43.9,11.5,82.4c-9.2,53.8,10.1,97.7,12.7,123.2
				c6,57.8,31.6,93.4,68.6,132.5c34.2,36.1,62.5,56.9,105.5,56.9s71.3-20.8,105.5-56.9c37-39.1,62.6-74.7,68.6-132.5
				c2.6-25.5,21.9-69.3,12.7-123.1c-6.6-38.5,4.6-46.7,11.5-82.4C750.9,309.2,744.3,287.8,733.3,258.3L733.3,258.3z"/>
			<path class="st3" d="M716.9,427.7c-8,42.7-3,74.8,10.8,77.3c12.6,2.4,29.2-17,38.3-50.2c7.7-28.1-1.1-17.2,2.2-44
				c5.3-42.5,3.8-60.5-11.5-60.5C742.8,350.4,725,385,716.9,427.7L716.9,427.7z"/>
		</g>
	</g>
</g>
<path class="st5" d="M550.1,416.3c0,0,4.3,36.5-21,57.1c-25.3,20.7-37.2,64.3,37.8,59.6c0,0-56.5-12.8-40.5-36.5
	C542.5,472.7,554.4,453.2,550.1,416.3L550.1,416.3z"/>
<path class="st6" d="M743.7,268.8c-3.7-9.8-6.9-19.8-9.2-30c-16.2-69.6-62-116.2-192.1-116.2s-178.1,50.5-193.3,124.8
	c-2,9.9-4.8,19.7-7.8,29.4c-5,16-6.8,32-5.4,48.1c1.3,15,3.4,30.3,5.7,45.4c0.7,4.9,1.5,9.8,2.2,14.7c1.2,7.8,2.3,15.3,3.4,22.7
	c0.5,3.4,1,6.8,1.4,10.2c4,30.3,6.5,31.8,10.2,31.8c4.1,0,5-5,5.5-7.4c0.5-2.5,1-5.1,1.5-7.7c0.9-4.5,1.7-8.9,2.6-13.4
	c2.2-10.9,4.4-22,6.4-33c4.2-22.6,5.7-45.6,5.7-68.7c0-2.8,0-5.5,0.1-8.3c4.8-20.7,11.5-39.2,21.2-49.7
	c44.9-48.9,127.2,10.6,140.5,10.6c14.6,0,99.6-55,141.1-9.3c11.7,12.8,19,33.5,23.7,55.7l0.1,1.5c-1.2,26.7,2.8,53.5,7.7,79.8
	c1.4,7.2,2.8,14.3,4.2,21.4c0.6,3.2,1.2,6.3,1.9,9.5c0.8,3.9,1.6,7.8,2.3,11.6c0.5,2.4,1.4,7.4,5.5,7.4l0,0c3.7,0,6.2-1.5,10.2-31.9
	c0.4-3.4,1-6.8,1.5-10.2c1-6.6,2-13.3,3-20.2c0.1-0.8,0.2-1.6,0.4-2.5c3-19.7,6.2-40.2,8-60C753.4,306.1,750.7,287.4,743.7,268.8
	L743.7,268.8z"/>
<ellipse transform="matrix(0.9971 -7.637099e-02 7.637099e-02 0.9971 -31.1578 37.2912)" class="st5" cx="472" cy="426" rx="17.9" ry="24.5"/>
<ellipse transform="matrix(0.9971 -7.637099e-02 7.637099e-02 0.9971 -30.5134 48.601)" class="st5" cx="620.2" cy="423.3" rx="17.2" ry="23.5"/>
<path class="st7" d="M490,588.8c-1.4,0.2-1.7,0.4-2.3,0.8c-2.2,1.5-2.5,4.8-0.2,6.8c21,18.8,55.6,22.5,80.5,15.9
	c9.3-2.5,18.3-6.8,25-13.5c0,0,2.3-2.6,1.1-5.1c-1.5-2.9-5.7-2.6-8.5,0c-12,11-30.2,13.8-47.4,12.6c-16.5-1.2-33.3-6.1-44.7-16.4
	C493.5,590,491.6,588.7,490,588.8L490,588.8z"/>
<path class="st7" d="M512.1,622.2c9.8,19.2,47.9,17.1,54.2,1.1C566.3,629.4,523.2,635,512.1,622.2z"/>
<path class="st6" d="M518.6,370.2c2.1,8.7-38.3,1.2-46.3-1.8c-13.2-5-16.4-7.1-29.9-5.5c-17.7,2-35.5,20.4-35.2,13.2
	c0.4-9.8,25-31.5,41.3-31.6c16.3-0.1,46.2,7.2,56.4,9.6C517.6,357.2,517.6,366.3,518.6,370.2L518.6,370.2z"/>
<path class="st6" d="M577.5,370.2c-2.1,8.7,38.3,1.2,46.3-1.8c13.2-5,16.4-7.1,29.9-5.5c17.7,2,35.5,20.4,35.2,13.2
	c-0.4-9.8-25-31.5-41.3-31.6c-16.3-0.1-46.2,7.2-56.4,9.6C578.5,357.2,578.4,366.3,577.5,370.2L577.5,370.2z"/>
</svg>
