<svg id="Laag_1" data-name="Laag 1" xmlns="http://www.w3.org/2000/svg" viewBox="0 0 1079.92 1079.92"><defs><style>.cls-1{fill:#fff;}.cls-2{fill:#ffab7f;}.cls-3{fill:#fd5e63;}.cls-4{fill:#083351;}.cls-5{fill:#020a2e;}.cls-6{fill:#055b83;}</style></defs><circle class="cls-1" cx="539.96" cy="539.96" r="539.96"/><polygon class="cls-2" points="415.47 787.79 449.6 763.34 448.57 628.43 630.11 628.43 629.08 763.34 663.21 787.79 539.34 952.92 415.47 787.79"/><path class="cls-3" d="M555.57,762a64.33,64.33,0,0,0,41.54-15.21l32.23-27.24.08-.17.69-90.9H448.57l.39,51.84c9.74,15.83,17.74,34.42,32.27,46.67l16.44,13.69A90.5,90.5,0,0,0,555.12,762Z"/><path class="cls-2" d="M636.62,659.22l-39.44,33.34a89.29,89.29,0,0,1-57.63,21.1h0a89.24,89.24,0,0,1-57.5-21l-39.68-33.42a244.5,244.5,0,0,1-87-187h0V321.51A157.09,157.09,0,0,1,512.5,164.42h53.68A157.09,157.09,0,0,1,723.27,321.51v151A244.48,244.48,0,0,1,636.62,659.22Z"/><path class="cls-2" d="M344.83,396.12c-2.21-53,.81-100.74,5.44-132,0,0,.12-.08.15-.17a58.89,58.89,0,0,0,7.85-8.78c11.92-16.6,3.36-27.36.3-30.37a85.48,85.48,0,0,0,20.58,11.82c21.33,8.88,58.51,16.11,111.69-2.7C578.61,202.9,708,265,712.11,267c-20.62-2.38,0,6.49,0,6.49S727,357.59,718.6,442.39C706,571,674.68,721.28,547.86,720.16,394.55,718.82,350.74,538.43,344.83,396.12Z"/><ellipse class="cls-2" cx="346.89" cy="453.83" rx="37.46" ry="72.18" transform="translate(-121.63 127.05) rotate(-17.71)"/><ellipse class="cls-2" cx="729.83" cy="453.83" rx="72.18" ry="37.46" transform="translate(75.47 1011) rotate(-72.29)"/><path class="cls-4" d="M720.08,217.75c-1.39-7.21-3.31-14.29-7-20.07-6.33-10-18.8-16.69-30.26-13.68,3.27-34-39.37-56.82-72.15-62.38-21.3-3.62-43.06-3.22-64.64-2.34-41.12,1.67-82.85,5.17-121.27,19.92-39.74,15.26-77.6,38-90.05,79.78-7.34,24.64-9.54,50.5-10.49,76.19-1.32,35.55,8,65.08,16,98.69,1.15,4.81,14.95,60.31,20.41,57.1a13,13,0,0,0,5-5.39c2.09-4,1.77-8.81,1.46-13.33C364,386.38,368.7,351.5,387,309.05c4.11-9.51,9.14-19.5,18.31-24.32,14.94-7.86,32-3.72,47.4,3.23,25.49,11.5,39.82,12.87,62.35,12.26,28.11-.76,73.59-13.75,103.58-23.73C699.18,249.71,709,389,705,427.52c-.51,5-1,10.41,1.54,14.76s9.44,6.37,12.61,2.45c0-3.57,6.85-11.87,8-16.23a53.2,53.2,0,0,0,1.71-18c-1.1-11.44-2.65-22.29-2.78-34.1q-.51-45-1-90c-.18-16.69,1.31-34.7-2-51.12C722,229.8,721.22,223.73,720.08,217.75Z"/><path class="cls-5" d="M574.29,369.33c.31,4.21,1.9,11.95,8.51,21.34a4.4,4.4,0,0,0,4.51,1.78c9.63-2.07,43.12-8.08,75.44.45a5,5,0,0,0,5.86-2.59c1.44-3,2.75-7.25.84-10.9-3.18-6.1-62.43-22.7-92-14.52A4.28,4.28,0,0,0,574.29,369.33Z"/><path class="cls-5" d="M495.71,371.13c-.28,3.8-1.65,10.23-6.87,18.08a5.16,5.16,0,0,1-5.15,2.21c-9.8-1.62-40.64-5.54-69.88,3.18a4,4,0,0,1-4.63-1.84c-1.5-2.59-3.1-6.63-1.33-10.16,2.77-5.51,56.66-22.15,84.45-16.09A4.39,4.39,0,0,1,495.71,371.13Z"/><ellipse class="cls-5" cx="472.19" cy="446.03" rx="17.54" ry="23.95" transform="translate(-32.68 37.35) rotate(-4.38)"/><ellipse class="cls-5" cx="611.51" cy="443.32" rx="16.82" ry="22.96" transform="translate(-32.06 47.98) rotate(-4.38)"/><path class="cls-5" d="M534.09,457.79s23.34,33.4,35.77,49c17,21.42,11.18,39-32.13,42.13,0,0,40.38-8.95,27.34-30.5S549.85,498.48,534.09,457.79Z"/><path class="cls-1" d="M615.16,564s-1.35,67.9-66.61,68.73-74.79-60.38-74.79-60.38S565.34,586.15,615.16,564Z"/><path class="cls-6" d="M922.2,862.7q-3.06-1.22-6.13-2.38L639.73,768.85l-.3,1.9c-2.6,15.94-5.92,28.21-23.17,39.19C551.7,851,510.61,839.28,451.92,798.2c-6.79-4.75-12.37-16.19-17.61-23.48l-1.38.55L192.18,871.18q-3,1.46-6,3a324.41,324.41,0,0,0-46.28,28.51c98.79,108.89,241.42,177.28,400,177.28,169.22,0,320.26-77.86,419.26-199.69A329.39,329.39,0,0,0,922.2,862.7Z"/></svg>