<?xml version="1.0" encoding="utf-8"?>
<!-- Generator: Adobe Illustrator 27.7.0, SVG Export Plug-In . SVG Version: 6.00 Build 0)  -->
<svg version="1.1" id="Matej" xmlns="http://www.w3.org/2000/svg" xmlns:xlink="http://www.w3.org/1999/xlink" x="0px" y="0px"
	 viewBox="0 0 1081.1 1080" style="enable-background:new 0 0 1081.1 1080;" xml:space="preserve">
<style type="text/css">
	.st0{fill:#FFFFFF;}
	.st1{clip-path:url(#SVGID_00000094617771146969546860000006774773994363891889_);}
	.st2{fill:#055B83;}
	.st3{fill:#FFAB7F;}
	.st4{clip-path:url(#SVGID_00000156579987879804178250000011524988268911081380_);}
	.st5{fill:#FD5E63;}
	.st6{fill:#001279;}
	.st7{fill:#020A2E;}
	.st8{fill:#083351;}
	.st9{fill-rule:evenodd;clip-rule:evenodd;fill:#020A2E;}
</style>
<circle class="st0" cx="540" cy="540" r="540"/>
<g>
	<defs>
		<circle id="SVGID_1_" cx="540" cy="540" r="540"/>
	</defs>
	<clipPath id="SVGID_00000030481091633105293980000006207734614275626166_">
		<use xlink:href="#SVGID_1_"  style="overflow:visible;"/>
	</clipPath>
	<g style="clip-path:url(#SVGID_00000030481091633105293980000006207734614275626166_);">
		<g>
			<path class="st2" d="M699.4,791.8c-82.6-28.4-153.1-50.9-153.1-50.9s-70.7,22.4-153.4,51c-96.6,33.3-209.7,75-245.6,98.9
				c-3.6,2.4-7.1,5.4-10.3,8.6c98.9,110.8,242.8,180.6,403,180.6s309.5-72.4,408.5-186.8c-1-0.8-2.1-1.7-3.2-2.4
				C909.5,866.9,796.2,825.1,699.4,791.8L699.4,791.8z"/>
			<path class="st3" d="M381.8,449.4c0,0-30.1-1.7-34.6,15.3c-4.6,17-7.9,76.7,50,94.2L381.8,449.4L381.8,449.4z"/>
			<path class="st3" d="M723.6,455.3c0,0,33.3-19,38.4,23.1s-6.8,74.1-48.8,80.5C671.2,565.3,723.6,455.3,723.6,455.3z"/>
			<g>
				<path class="st3" d="M663.1,781.1c0,0-8.3-99.8-11.7-140.9l-199.6-5.9L440,775.2C440,775.2,539.8,880.8,663.1,781.1L663.1,781.1
					z"/>
				<g>
					<defs>
						<path id="SVGID_00000063621709905247771740000012772898409601863059_" d="M663.1,781.1c0,0-8.3-99.8-11.7-140.9l-199.6-5.9
							L440,775.2C440,775.2,539.8,880.8,663.1,781.1L663.1,781.1z"/>
					</defs>
					<clipPath id="SVGID_00000002369145890304319750000001070063035084834432_">
						<use xlink:href="#SVGID_00000063621709905247771740000012772898409601863059_"  style="overflow:visible;"/>
					</clipPath>
					<g style="clip-path:url(#SVGID_00000002369145890304319750000001070063035084834432_);">
						<path class="st5" d="M686.6,640.2c0,41.1-164.2,129.9-287.6,111.5c53.8-67.2,29.7-157.7,29.7-157.7l269.7-25.1
							C698.3,568.9,681.6,587.2,686.6,640.2L686.6,640.2z"/>
					</g>
				</g>
			</g>
			<path class="st6" d="M395.9,326.6c2.7-2.5,4.9-5,6.5-7.3C398.6,323.2,396.5,325.9,395.9,326.6z"/>
			<path class="st3" d="M395.9,326.6c2.7-2.5,4.9-5,6.5-7.3C398.6,323.2,396.5,325.9,395.9,326.6z"/>
			<path class="st3" d="M376.7,430.8c0-47-16.8-91-12.9-119.3c0,0,11.7,0.1,11.7,0c2.9-2.8-7.6-9.2-5.9-11.7
				c10.5-15.1,8.6-26.6,5.9-29.4c2.1,1.7,13.3-39.4,23.5-35.2c19.1,7.9,58.3,23.2,105.6,5.9c78.1-28.5,166.6,10,170.2,11.7
				c41.1-35.2,70.4,23.5,53.9,68.2c0,0,4.6,61.8,0.1,139.1c4.5,122.3-58.2,250.8-171.4,250.5C420.6,710.3,376.7,589.2,376.7,430.8
				L376.7,430.8z"/>
			
				<ellipse transform="matrix(3.367849e-02 -0.9994 0.9994 3.367849e-02 198.7774 1044.7167)" class="st7" cx="639.6" cy="419.6" rx="23.1" ry="14.4"/>
			
				<ellipse transform="matrix(3.367849e-02 -0.9994 0.9994 3.367849e-02 39.8213 881.3843)" class="st7" cx="475.7" cy="420.1" rx="23.1" ry="14.4"/>
			<path class="st8" d="M341.5,231.2c-0.5,8.8-12.1,50.4-5.9,82.2c3,15.4,7.5,30.7,12.6,44.8c13.5,38.1,30.7,91.4,30.7,91.4l0.5,0
				c-2-43.2,3.2-101,3.3-101.1c0.5-0.5,3-61.7,4.7-66.4c3.9-11.5,2.9-38.3,22.8-27.7c19.1,7,52.4,12.4,100.1-3.6
				c78.6-26.4,172.7,21.7,194.1,2c0,0,31,130.2,23.5,199.6c18-21.8,54-133.1,22.5-223.9c-4.3-12.3-27.2-20.8-34.7-10.9
				C730.2,174,670.2,149,610.2,143c-63.3-23.4-119.6-21.3-174.8-11.6C361.9,144.3,342.8,206.6,341.5,231.2L341.5,231.2z"/>
			<path class="st9" d="M505.6,340.5c-26.9,2.5-70,13.8-87.7,29.8c-5.4,6.3-4.4,18,1.9,23.4c31.1-16.9,63.7-28.8,98.5-21.4
				C523.7,358.5,522.3,347.1,505.6,340.5L505.6,340.5z"/>
			<path class="st9" d="M611.2,340.6c26.9,2.4,70,13.5,87.8,29.4c5.4,6.3,4.5,18-1.8,23.4c-31.2-16.7-63.8-28.5-98.6-21
				C593.1,358.8,594.5,347.3,611.2,340.6L611.2,340.6z"/>
			<path class="st7" d="M552.8,423.2c0,0-18.3,56.3-30.4,74.7C505.7,523.2,514,542,562,541c0,0-45.4-5.8-33.2-30.8
				S551.3,470.5,552.8,423.2L552.8,423.2z"/>
		</g>
		<path class="st0" d="M611.5,585.9c0,0-67.8,14.7-112.3,0.2c0,0,21.9,28.3,52.3,33C581.9,623.8,611.5,585.9,611.5,585.9
			L611.5,585.9z"/>
	</g>
</g>
</svg>
