<?xml version="1.0" encoding="utf-8"?>
<!-- Generator: Adobe Illustrator 27.7.0, SVG Export Plug-In . SVG Version: 6.00 Build 0)  -->
<svg version="1.1" id="Jamie" xmlns="http://www.w3.org/2000/svg" xmlns:xlink="http://www.w3.org/1999/xlink" x="0px" y="0px"
	 viewBox="0 0 1081.1 1080" style="enable-background:new 0 0 1081.1 1080;" xml:space="preserve">
<style type="text/css">
	.st0{fill:#FFFFFF;}
	.st1{clip-path:url(#SVGID_00000006670693370820372720000010839245399642450332_);}
	.st2{fill:#FFAB7F;}
	.st3{fill:#FD5E63;}
	.st4{fill:#020A2E;}
	.st5{fill:#020A2E;stroke:#FFAB7F;stroke-width:0.5;stroke-miterlimit:10;}
	.st6{fill:none;}
	.st7{fill:#083351;}
	.st8{fill:#055B83;}
</style>
<circle class="st0" cx="540" cy="540" r="540"/>
<g>
	<defs>
		<circle id="SVGID_1_" cx="540" cy="540" r="540"/>
	</defs>
	<clipPath id="SVGID_00000142896144540879440170000002587756184055199872_">
		<use xlink:href="#SVGID_1_"  style="overflow:visible;"/>
	</clipPath>
	<g style="clip-path:url(#SVGID_00000142896144540879440170000002587756184055199872_);">
		<g>
			<path class="st2" d="M640.7,712.7c8,24.2,17.6,76.3,5.9,105.7c-11.6,29.1-59.7,37.7-80.8,25.6c-17.2-9.8-39.4-30-43.2-54
				c-2.3-14.6,1.8-28.8,0-43.2c-2-15.6-9.2-28.3-8.1-44.7c18.7-11.5,140.8-33.2,120.4,4.6"/>
			<path class="st3" d="M503.8,699.7l59.3-13.2c0,0-39.5,85.6-13.2,158.1s-32.9-52.7-32.9-52.7L503.8,699.7L503.8,699.7z"/>
		</g>
		<path class="st2" d="M313.1,465.2c50,2,42.6,68.9,56.4,102.9c1.9,4.6,3.9,9.2,6,13.7C355.8,610.2,294.2,564,313.1,465.2
			L313.1,465.2z"/>
		<path class="st2" d="M541.5,725.1c-36.2-8.5-69.9-26.6-97.5-50.9c-49.1-43.2-102.7-119-112.1-183.2c-9.5-65.1,40.6-149.2,88-189.4
			c113.6-96.2,249.4-78.9,300.5,60.5c39.7,108.2,99.3,271.8-32.2,343.4c-31.7,17.3-68.6,25.6-105,24.9
			C569.2,730.2,555.2,728.4,541.5,725.1L541.5,725.1z"/>
		<path class="st0" d="M680.2,595.7c0.7,0.3,1.4,0.5,2.1,0.7c6.3,27.6-22,65.3-50.1,64c-25.3-1.2-56.1-32.2-60.3-47.9
			C609.2,614.1,651.5,605,680.2,595.7L680.2,595.7z"/>
		<g>
			<path class="st4" d="M445.3,491.4c2.6,2.2,6.5,1.9,8.9-0.6c9.4-10.2,24.2-22.9,41.6-32.4c13-7.1,31.2-14.4,47-10.7
				c3.1,0.7,6.2-0.9,7.3-3.8l0.3-0.6c1.5-3.6-0.6-7.9-4.4-8.7c-33.8-7.7-77.8,21.1-101.7,47.1c-2.5,2.7-2.3,7,0.6,9.4L445.3,491.4
				L445.3,491.4z"/>
			<path class="st2" d="M449.4,494.4c2.1,0,4.2-0.9,5.8-2.5c5.4-5.8,20.2-20.7,41.2-32.1c12.4-6.8,30.4-14.1,46-10.6
				c3.8,0.9,7.6-1.1,9-4.7l0.3-0.6c0.9-2.2,0.8-4.6-0.3-6.7c-1-2-2.9-3.5-5.1-4c-36-8.2-81.4,23.9-103.1,47.5
				c-1.5,1.6-2.3,3.8-2.1,6c0.1,2.2,1.2,4.2,2.9,5.6l0.5,0.4C445.8,493.8,447.6,494.4,449.4,494.4L449.4,494.4z M533.8,445.2
				c-13.9,0-28.3,6.1-38.8,11.9c-21.3,11.7-36.4,26.8-41.9,32.7c-1.8,1.9-4.8,2.1-6.8,0.5l0,0l-0.5-0.4c-1.1-0.9-1.7-2.1-1.8-3.5
				c-0.1-1.4,0.4-2.7,1.3-3.8c21.3-23.1,65.6-54.5,100.3-46.6c1.4,0.3,2.5,1.2,3.2,2.5c0.7,1.3,0.8,2.9,0.2,4.3l-0.3,0.6
				c-0.9,2.2-3.3,3.5-5.7,3C540,445.5,536.9,445.2,533.8,445.2L533.8,445.2z"/>
		</g>
		<g>
			<path class="st4" d="M643.2,427.2c20-14.2,42.6-17.6,62.1-9.4c3,1.2,6.4-0.2,7.9-3l0.3-0.6c1.8-3.4,0.2-7.6-3.3-9.1
				c-23.9-9.9-51.1-5.9-75,11.1c-3.1,2.2-3.8,6.5-1.4,9.5l0.4,0.5C636.5,428.8,640.4,429.2,643.2,427.2L643.2,427.2z"/>
			<path class="st2" d="M639.3,429.9c1.7,0,3.3-0.5,4.8-1.6l0,0c19.6-13.8,41.7-17.2,60.7-9.3c3.5,1.5,7.9-0.1,9.8-3.7l0.3-0.6
				c1-2,1.2-4.3,0.5-6.4c-0.8-2.1-2.4-3.9-4.5-4.7c-24.3-10-52.2-6-76.4,11.2c-1.8,1.3-3.1,3.3-3.4,5.6c-0.3,2.2,0.3,4.3,1.7,6
				l0.4,0.5C634.7,428.9,637,429.9,639.3,429.9L639.3,429.9z M683.6,412c-13.8,0-28.1,4.8-41.2,14l0,0c-2.3,1.6-5.2,1.3-6.9-0.8
				l-0.4-0.5c-0.9-1.1-1.2-2.4-1.1-3.8c0.2-1.4,1-2.7,2.2-3.6c23.4-16.6,50.2-20.6,73.5-10.9c1.3,0.6,2.4,1.7,2.9,3
				c0.5,1.4,0.4,2.8-0.3,4L712,414c-1.2,2.2-3.9,3.3-6.1,2.4C698.8,413.4,691.2,411.9,683.6,412L683.6,412z"/>
		</g>
		<path class="st5" d="M648.3,554.8c12.3,0,15.8-6.9,16.8-11.1c3.9-16.3-17-46.3-25.3-50.5l-3.6,7.3c5.8,2.8,23.9,29.4,21,41.2
			c-0.4,1.5-1.2,4.9-9.2,4.9l-0.1,8.2C648,554.8,648.2,554.8,648.3,554.8L648.3,554.8z"/>
		<path class="st6" d="M666.3,171.4c-26,43.3-105.5,32.2-147.4,37.9c-43.1,5.9-82.9,28.9-99,66"/>
		<path class="st7" d="M383,578.9c-0.8-26-6.6-71.5-19.3-94.1c-20.9-37.3-32.9,5.4-54.5,6.4c-18.5,0.9-25.5-56.6-31.1-71.8
			c-11.2-30.2-36.1-79.4-18.4-108.8c13.7-22.7,40.8-44.7,63.5-58.1c16.5-9.7,31.6-21.8,48.2-31.5c43.1-25.4,89.7-39.2,140-42.3
			c44.1-2.7,90.8,4.1,134.5-3.8c22-3.9,46.1-9.8,58.9-28.1c25.1,23.4,45.7,47.2,26.9,81.4c-8.7,15.8-27.8,33.6-46.9,36
			c4.2,4.7,12.5,7.8,17.8,12.4c6.9,5.9,12.9,12.9,16.7,21.1c5.3,11.5,10,28.9,0.4,39.5c-9.8,10.9-14.9-12.6-19.5-19.4
			c-4.6-6.9-13.5-26.4-24.3-24.6c-3.9,0.6-11.3,10.2-14.6,12.8c-5.5,4.2-11.3,8.2-17.8,11c-16.5,7-34.4,10.5-52.2,12.1
			c-35.6,3.1-72.2-1.4-106.5-10.8c7.4,7.6,15.9,10.9,17.6,21.8c2.2,13.7-9,25.3-20.9,31c-32.7,15.8-73.3,6.9-102.4-9.8
			c3.7,12.4,14.6,24.4,19.5,37.4c5.6,15,6.4,34.1,7.2,50c0.8,16.3,0,32.8,0,49c0,13.6-2.1,30.9-5.2,44.1
			C398.2,553.5,382.7,567.4,383,578.9L383,578.9z"/>
		
			<ellipse transform="matrix(0.987 -0.1606 0.1606 0.987 -66.8711 116.0801)" class="st4" cx="684.8" cy="471.8" rx="14.2" ry="22.8"/>
		
			<ellipse transform="matrix(0.987 -0.1606 0.1606 0.987 -74.2115 91.1214)" class="st4" cx="526.7" cy="504.7" rx="14.2" ry="22.8"/>
		<path class="st8" d="M813.6,842.8l-161.1-59.6c0,0-18.3,25.1-50.4,25.5c-20.9,0.2-49.7-8.6-87.8-38.5l-259.8,95.7
			c-9.7,3.6-18.1,10-24.1,18.4c-9.5,13.3-25.6,35.8-45,63C280.3,1029.9,404.3,1080,540,1080c157.3,0,298.8-67.2,397.5-174.5
			c-8.1-4.9-17.7-10.8-27.1-16.6C880,869.8,847.6,854.3,813.6,842.8L813.6,842.8z"/>
	</g>
</g>
</svg>
