<?xml version="1.0" encoding="utf-8"?>
<!-- Generator: Adobe Illustrator 25.0.0, SVG Export Plug-In . SVG Version: 6.00 Build 0)  -->
<svg version="1.1" id="Laag_7" xmlns="http://www.w3.org/2000/svg" xmlns:xlink="http://www.w3.org/1999/xlink" x="0px" y="0px"
	 viewBox="0 0 1080 1080" style="enable-background:new 0 0 1080 1080;" xml:space="preserve">
<style type="text/css">
	.st0{fill:#FFFFFF;}
	.st1{clip-path:url(#SVGID_2_);fill:none;}
	.st2{clip-path:url(#SVGID_4_);fill:#FFAB7F;}
	.st3{clip-path:url(#SVGID_6_);fill:#FFAB7F;}
	.st4{clip-path:url(#SVGID_8_);fill:#FD5E63;}
	.st5{clip-path:url(#SVGID_10_);fill:#083351;}
	.st6{clip-path:url(#SVGID_16_);fill:#FFAB7F;}
	.st7{clip-path:url(#SVGID_20_);fill:#FFFFFF;}
	.st8{clip-path:url(#SVGID_22_);fill:#FFFFFF;}
	.st9{clip-path:url(#SVGID_24_);fill:#FFFFFF;}
	.st10{clip-path:url(#SVGID_26_);fill:#055B83;}
	.st11{clip-path:url(#SVGID_28_);fill:#055B83;}
	.st12{clip-path:url(#SVGID_30_);fill:#1D2F49;}
	.st13{clip-path:url(#SVGID_32_);fill:#1D2F49;}
	.st14{clip-path:url(#SVGID_34_);fill:#1D2F49;}
	.st15{clip-path:url(#SVGID_36_);fill:#020A2E;}
	.st16{clip-path:url(#SVGID_38_);fill:#020A2E;}
	.st17{clip-path:url(#SVGID_40_);fill:#071330;}
	.st18{clip-path:url(#SVGID_42_);fill:#071330;}
	.st19{clip-path:url(#SVGID_44_);fill:#071330;}
	.st20{clip-path:url(#SVGID_46_);fill:#071330;}
	.st21{clip-path:url(#SVGID_48_);fill:#071330;}
	.st22{clip-path:url(#SVGID_50_);fill:#FFFFFF;}
	.st23{clip-path:url(#SVGID_52_);fill:#FFFFFF;}
	.st24{clip-path:url(#SVGID_54_);fill:#FFFFFF;}
	.st25{clip-path:url(#SVGID_56_);fill:#1D2F49;}
	.st26{clip-path:url(#SVGID_58_);}
	.st27{fill:#1D2F49;}
</style>
<circle class="st0" cx="540" cy="540" r="540"/>
<g>
	<g>
		<defs>
			<circle id="SVGID_1_" cx="540" cy="540" r="540"/>
		</defs>
		<clipPath id="SVGID_2_">
			<use xlink:href="#SVGID_1_"  style="overflow:visible;"/>
		</clipPath>
		<path class="st1" d="M321.7,775.3L321.7,775.3c0,0,16.2-7.8,34.9-16.8l-0.6-3.1l48.8-21.6l1.8,1.1c2.2-1.1,4.4-2,6.6-2.8v0.1
			c7.2-5.9,13.5-12.9,18.7-20.6c8.2-11.9,14.7-24.9,19.4-38.6c0.2-0.7,0.5-1.4,0.6-2.2c-26.1-17.7-46.2-35.8-53.5-46
			c-18.6-26.1-42-85-42-85s-32.6,14.9-48.9-44.8c-4.3-15.6-4.3-30.4-1.4-41.8c-12.3-17.5-37.4-56.8-53.1-107.9
			c-19.6-64-4.4-82.8,22.6-88.3c0,0,6.8-82.8,43.7-105.9c47-29.3,158.5-41.1,220.4-5.9c55.1,31.3,82.9-51.4,108.3-52.8
			s42,42.1,29,76.2c0,0,39.5-33.8,41.5-60.7s62.3,8.9,63.3,107.3s-38.8,119-38.8,119s11.6,95.2-59.5,126.7
			c-6.9,81.4-25.3,184.4-73.7,224.5c-2.8,2.3-5.7,4.4-8.7,6.4c0.2,0.7,0.5,1.4,0.8,2.2c6,16.4,15.9,25.7,31.2,39.3l9.3,2.8l-0.3-4
			l7.6,2.7l0.2-0.2v0.3l14,5c0.7,0.1,1.5,0.3,2.2,0.5l80.3,29l188.7,68.2c12.7,4.6,24.7,11.1,35.4,19.3l4.3,3.3
			c68.5-92.7,105.3-204.9,105.1-320.2C1080,241.8,838.2,0,540,0S0,241.8,0,540c-0.2,121.3,40.6,239,115.8,334.2l199.5-94.9
			L321.7,775.3z"/>
	</g>
	<g>
		<defs>
			<circle id="SVGID_3_" cx="540" cy="540" r="540"/>
		</defs>
		<clipPath id="SVGID_4_">
			<use xlink:href="#SVGID_3_"  style="overflow:visible;"/>
		</clipPath>
		<path class="st2" d="M452,670.7c-0.2,0.7-0.4,1.5-0.6,2.2c1-0.1,2.1-0.3,3.3-0.4L452,670.7z"/>
	</g>
	<g>
		<defs>
			<circle id="SVGID_5_" cx="540" cy="540" r="540"/>
		</defs>
		<clipPath id="SVGID_6_">
			<use xlink:href="#SVGID_5_"  style="overflow:visible;"/>
		</clipPath>
		<path class="st3" d="M419,742.2L419,742.2l3.5,2.1l0.3,0.2l133.5,79.2l86.5-82.3l-0.4-5.4l-9.3-2.8c-15.3-13.7-25.2-23-31.2-39.3
			c0,0-51,41.3-170,17.6c-5.2,7.8-11.5,14.7-18.7,20.6l2.6,8.2L419,742.2z"/>
	</g>
	<g>
		<defs>
			<circle id="SVGID_7_" cx="540" cy="540" r="540"/>
		</defs>
		<clipPath id="SVGID_8_">
			<use xlink:href="#SVGID_7_"  style="overflow:visible;"/>
		</clipPath>
		<path class="st4" d="M602,693.8c-0.3-0.7-0.5-1.4-0.8-2.2c-37.2,24.3-84.4,16.8-118-1.8c-10-5.5-19.6-11.4-28.5-17.4
			c-1.2,0.1-2.3,0.2-3.3,0.4c-4.7,13.7-11.2,26.7-19.4,38.6C551,735.2,602,693.8,602,693.8z"/>
	</g>
	<g>
		<defs>
			<circle id="SVGID_9_" cx="540" cy="540" r="540"/>
		</defs>
		<clipPath id="SVGID_10_">
			<use xlink:href="#SVGID_9_"  style="overflow:visible;"/>
		</clipPath>
		<path class="st5" d="M370.5,490.4c0,0,43.6-37.1,9.9-126.4c0,0,49,35.3,126.8,15.9c47-11.7,18.6-45.5,18.6-45.5
			s66.8,40.6,161.7,15.2c0.6,37.1-0.7,74.2-3.8,111.2c71.2-31.5,59.5-126.7,59.5-126.7s39.8-20.5,38.8-119s-61.3-134.2-63.3-107.3
			s-41.5,60.7-41.5,60.7c12.9-34.1-3.6-77.6-29-76.2s-53.2,84.1-108.3,52.8c-61.9-35.2-173.4-23.5-220.4,5.9
			c-36.9,23-43.7,105.9-43.7,105.9c-27.1,5.5-42.3,24.4-22.6,88.3c15.7,51.1,40.7,90.4,53.1,107.9
			C314.2,421,345.4,415.4,370.5,490.4z"/>
	</g>
	<g>
		<defs>
			<circle id="SVGID_11_" cx="540" cy="540" r="540"/>
		</defs>
		<clipPath id="SVGID_12_">
			<use xlink:href="#SVGID_11_"  style="overflow:visible;"/>
		</clipPath>
	</g>
	<g>
		<defs>
			<circle id="SVGID_13_" cx="540" cy="540" r="540"/>
		</defs>
		<clipPath id="SVGID_14_">
			<use xlink:href="#SVGID_13_"  style="overflow:visible;"/>
		</clipPath>
	</g>
	<g>
		<defs>
			<circle id="SVGID_15_" cx="540" cy="540" r="540"/>
		</defs>
		<clipPath id="SVGID_16_">
			<use xlink:href="#SVGID_15_"  style="overflow:visible;"/>
		</clipPath>
		<path class="st6" d="M687.4,349.6c-94.8,25.4-161.7-15.2-161.7-15.2s28.4,33.7-18.6,45.5C429.4,399.3,380.4,364,380.4,364
			c33.6,89.3-9.9,126.4-9.9,126.4c-25.1-75-56.2-69.4-64.3-37.3c-0.1,0,4.5,6.4-0.1,0c-2.9,11.4-2.8,26.1,1.4,41.8
			c16.3,59.7,48.9,44.8,48.9,44.8s23.5,59,42,85c7.3,10.3,27.5,28.3,53.5,46c0.1,0.1,0.1,0.1,0.1,0.1l2.7,1.8c0,0,0,0,0,0
			c8.9,6,18.4,11.8,28.4,17.3c33.7,18.6,80.8,26.1,118.1,1.8c0,0,0-0.1,0-0.1c3-2,5.9-4.1,8.6-6.4c48.3-40.2,66.8-143,73.7-224.4
			c0,0,0.1,0,0.1,0C686.8,423.8,688,386.7,687.4,349.6z M556.8,524.2c16.9,8.5,29,31.6-13.8,38.3c0,0,30.3-14.3,18.2-25.7
			s-21.1-20.8-23.4-42.1C538.1,496.5,540.7,516.1,556.8,524.2z M426.1,430.2c0-0.1-1.7-7.9-0.3-11.3c0,0,45.3-19.2,68.3-18
			c0,0,4,12.6,1.7,21.2C495.8,422.1,458.7,414.8,426.1,430.2z M467.3,671.6c0.1,0,0.2,0,0.2,0S467.4,671.6,467.3,671.6z
			 M456.1,477.4c-0.4-12.4,7.1-22.6,16.6-22.9s17.5,9.6,17.9,22c0.4,12.4-7.1,22.6-16.6,22.9S456.5,489.8,456.1,477.4z M578,628.4
			c-8.2,9.1-20.2,16.4-37.4,16c-22-2.3-35.5-11-43.9-20.9l-0.1-0.1c-13.7-16.3-13.5-35.8-13.5-35.8c47.1,20.7,111.7,6.6,111.7,6.6
			s-3.6,19.5-16.9,34.1L578,628.4z M626.5,477.2c0,0-0.1,0-0.1,0c-1,10.7-7.9,19.1-16.5,19.4c-6.9,0.2-12.5-4.6-15.9-12.6
			c-1.2-3-1.8-6.2-1.9-9.4c-0.3-12.4,7.1-22.6,16.6-22.9s17.5,9.6,17.9,22C626.6,474.9,626.6,476,626.5,477.2z M574.1,421
			c0,0-6.2-14.6-3-23.2c0,0,52-2.7,68.9,7.7l2.6,10.2C640.9,415.7,596.8,410.7,574.1,421z"/>
	</g>
	<g>
		<defs>
			<circle id="SVGID_17_" cx="540" cy="540" r="540"/>
		</defs>
		<clipPath id="SVGID_18_">
			<use xlink:href="#SVGID_17_"  style="overflow:visible;"/>
		</clipPath>
	</g>
	<g>
		<defs>
			<circle id="SVGID_19_" cx="540" cy="540" r="540"/>
		</defs>
		<clipPath id="SVGID_20_">
			<use xlink:href="#SVGID_19_"  style="overflow:visible;"/>
		</clipPath>
		<path class="st7" d="M650,734.6l-0.2,0.2l0.2,0.1V734.6z"/>
	</g>
	<g>
		<defs>
			<circle id="SVGID_21_" cx="540" cy="540" r="540"/>
		</defs>
		<clipPath id="SVGID_22_">
			<use xlink:href="#SVGID_21_"  style="overflow:visible;"/>
		</clipPath>
		<path class="st8" d="M581.1,912.1c-6.3,0.9-15.7-1.6-15.7-1.6l-7.1,169.1c36.4-1.2,72.5-6.1,107.9-14.5L652,869.4
			C632,892.6,606.8,909.6,581.1,912.1z"/>
	</g>
	<g>
		<defs>
			<circle id="SVGID_23_" cx="540" cy="540" r="540"/>
		</defs>
		<clipPath id="SVGID_24_">
			<use xlink:href="#SVGID_23_"  style="overflow:visible;"/>
		</clipPath>
		<path class="st9" d="M581.1,912.1c25.7-2.5,50.9-19.5,71-42.8l-9.3-128l-86.6,82.4l-133.5-79.2l-0.3-0.2l-3.4-2l-0.1-0.1l-3.2-1.9
			L522,1079.5c5.9,0.2,11.9,0.3,17.9,0.3c6.1,0,12.3-0.1,18.4-0.3l7.1-169.1C565.5,910.6,574.8,913,581.1,912.1z"/>
	</g>
	<g>
		<defs>
			<circle id="SVGID_25_" cx="540" cy="540" r="540"/>
		</defs>
		<clipPath id="SVGID_26_">
			<use xlink:href="#SVGID_25_"  style="overflow:visible;"/>
		</clipPath>
		<path class="st10" d="M359.7,1049.1l-52-70.7l13.9-203.1l-6.4,4l-199.5,94.9C179,954.3,263.6,1015,359.7,1049.1z"/>
	</g>
	<g>
		<defs>
			<circle id="SVGID_27_" cx="540" cy="540" r="540"/>
		</defs>
		<clipPath id="SVGID_28_">
			<use xlink:href="#SVGID_27_"  style="overflow:visible;"/>
		</clipPath>
		<path class="st11" d="M935.1,837.5l-188.7-68.1l0,0l44.7,139.8l-22.4,120c81.7-38.3,152.5-96.5,206.1-169.1l-4.3-3.3
			C959.8,848.6,947.8,842.1,935.1,837.5z"/>
	</g>
	<g>
		<defs>
			<circle id="SVGID_29_" cx="540" cy="540" r="540"/>
		</defs>
		<clipPath id="SVGID_30_">
			<use xlink:href="#SVGID_29_"  style="overflow:visible;"/>
		</clipPath>
		<path class="st12" d="M356.6,758.8v-0.2c-18.8,9-34.9,16.8-34.9,16.8l0,0L356.6,758.8z"/>
	</g>
	<g>
		<defs>
			<circle id="SVGID_31_" cx="540" cy="540" r="540"/>
		</defs>
		<clipPath id="SVGID_32_">
			<use xlink:href="#SVGID_31_"  style="overflow:visible;"/>
		</clipPath>
		<path class="st13" d="M413.3,732.1L413.3,732.1L413.3,732.1L413.3,732.1z"/>
	</g>
	<g>
		<defs>
			<circle id="SVGID_33_" cx="540" cy="540" r="540"/>
		</defs>
		<clipPath id="SVGID_34_">
			<use xlink:href="#SVGID_33_"  style="overflow:visible;"/>
		</clipPath>
		<path class="st14" d="M411.5,737.8l4.3,2.5l-2.6-8.2l-0.1,0.1C413,732.8,412.2,735.2,411.5,737.8z"/>
	</g>
	<g>
		<defs>
			<circle id="SVGID_35_" cx="540" cy="540" r="540"/>
		</defs>
		<clipPath id="SVGID_36_">
			<use xlink:href="#SVGID_35_"  style="overflow:visible;"/>
		</clipPath>
		<path class="st15" d="M561.2,536.9c12,11.4-18.2,25.7-18.2,25.7c42.9-6.7,30.7-29.8,13.8-38.3c-16.1-8.1-18.8-27.7-19-29.5
			C540.1,516.1,549.2,525.5,561.2,536.9z"/>
	</g>
	<g>
		<defs>
			<circle id="SVGID_37_" cx="540" cy="540" r="540"/>
		</defs>
		<clipPath id="SVGID_38_">
			<use xlink:href="#SVGID_37_"  style="overflow:visible;"/>
		</clipPath>
		<path class="st16" d="M537.8,494.8v-0.1C537.8,494.7,537.8,494.7,537.8,494.8z"/>
	</g>
	<g>
		<defs>
			<circle id="SVGID_39_" cx="540" cy="540" r="540"/>
		</defs>
		<clipPath id="SVGID_40_">
			<use xlink:href="#SVGID_39_"  style="overflow:visible;"/>
		</clipPath>
		<path class="st17" d="M610,496.6c8.6-0.2,15.5-8.6,16.5-19.4c-10.3,2.3-21.2,4.6-32.5,6.8C597,491.7,603.1,496.8,610,496.6z"/>
	</g>
	<g>
		<defs>
			<circle id="SVGID_41_" cx="540" cy="540" r="540"/>
		</defs>
		<clipPath id="SVGID_42_">
			<use xlink:href="#SVGID_41_"  style="overflow:visible;"/>
		</clipPath>
		<path class="st18" d="M626.6,473.7c-0.3-12.4-8.3-22.2-17.9-22s-17,10.5-16.6,22.9c0.1,3.2,0.7,6.4,1.9,9.4
			c11.3-2.2,22.2-4.5,32.5-6.8C626.6,476.1,626.6,474.9,626.6,473.7z"/>
	</g>
	<g>
		<defs>
			<circle id="SVGID_43_" cx="541.7" cy="538.1" r="540"/>
		</defs>
		<clipPath id="SVGID_44_">
			<use xlink:href="#SVGID_43_"  style="overflow:visible;"/>
		</clipPath>
		
			<ellipse transform="matrix(0.9996 -2.809625e-02 2.809625e-02 0.9996 -13.215 13.4862)" class="st19" cx="473.3" cy="477" rx="17.2" ry="22.4"/>
	</g>
	<g>
		<defs>
			<circle id="SVGID_45_" cx="540" cy="540" r="540"/>
		</defs>
		<clipPath id="SVGID_46_">
			<use xlink:href="#SVGID_45_"  style="overflow:visible;"/>
		</clipPath>
		<path class="st20" d="M642.6,415.7l-2.6-10.2c-16.9-10.4-68.9-7.7-68.9-7.7c-3.2,8.6,3.1,23.2,3.1,23.2
			C596.7,410.7,640.9,415.7,642.6,415.7z"/>
	</g>
	<g>
		<defs>
			<circle id="SVGID_47_" cx="540" cy="540" r="540"/>
		</defs>
		<clipPath id="SVGID_48_">
			<use xlink:href="#SVGID_47_"  style="overflow:visible;"/>
		</clipPath>
		<path class="st21" d="M495.8,422c2.3-8.6-1.7-21.2-1.7-21.2c-23-1.2-68.3,18-68.3,18c-1.4,3.5,0.3,11.3,0.3,11.3
			C458.7,414.7,495.8,422,495.8,422z"/>
	</g>
	<g>
		<defs>
			<circle id="SVGID_49_" cx="540" cy="540" r="540"/>
		</defs>
		<clipPath id="SVGID_50_">
			<use xlink:href="#SVGID_49_"  style="overflow:visible;"/>
		</clipPath>
		<path class="st22" d="M483.2,587.6c0,0-0.2,19.5,13.5,35.8l81.3,4.9c13.3-14.7,16.9-34.1,16.9-34.1S536,652,483.2,587.6z"/>
	</g>
	<g>
		<defs>
			<circle id="SVGID_51_" cx="540" cy="540" r="540"/>
		</defs>
		<clipPath id="SVGID_52_">
			<use xlink:href="#SVGID_51_"  style="overflow:visible;"/>
		</clipPath>
		<path class="st23" d="M540.6,644.3c17.2,0.4,29.2-6.9,37.4-16l-81.3-4.9C505,633.3,518.6,642,540.6,644.3z"/>
	</g>
	<g>
		<defs>
			<circle id="SVGID_53_" cx="540" cy="540" r="540"/>
		</defs>
		<clipPath id="SVGID_54_">
			<use xlink:href="#SVGID_53_"  style="overflow:visible;"/>
		</clipPath>
		<path class="st24" d="M594.9,594.2c0,0-64.6,14.1-111.7-6.6C536,652,594.9,594.2,594.9,594.2z"/>
	</g>
	<g>
		<defs>
			<circle id="SVGID_55_" cx="540" cy="540" r="540"/>
		</defs>
		<clipPath id="SVGID_56_">
			<use xlink:href="#SVGID_55_"  style="overflow:visible;"/>
		</clipPath>
		<path class="st25" d="M746.4,769.4L664,739.8l-14-5l0,0l-0.2-0.1l0,0l-7.6-2.7l0.3,4l0.4,5.4l0,0l9.3,128l0,0l14.2,195.7l4-1l0,0
			c3.4-0.8,10.2-2.6,10.2-2.6c30.3-8.1,59.8-18.9,88.3-32.2l22.4-120L746.4,769.4z"/>
	</g>
	<g>
		<defs>
			<circle id="SVGID_57_" cx="540" cy="540" r="540"/>
		</defs>
		<clipPath id="SVGID_58_">
			<use xlink:href="#SVGID_57_"  style="overflow:visible;"/>
		</clipPath>
		<g class="st26">
			<path class="st27" d="M413.2,732c-2.3,0.8-6.4,3-6.4,3L413.2,732z"/>
			<path class="st27" d="M522.1,1079.6L415.8,740.4l-0.1-0.1l-2.5-8.1V732c0,0-38.1,17.6-56.6,26.5v0.2l0,0l0,0l-35,16.5
				l-13.9,203.1l52,70.7c20.6,7.3,41.7,13.3,63,18.1l0,0c27.9,6.2,56.3,10.1,84.9,11.8c3.9,0.2,7.8,0.4,11.8,0.6
				C519.5,1079.6,521.2,1079.6,522.1,1079.6z"/>
		</g>
	</g>
</g>
</svg>
