<?xml version="1.0" encoding="utf-8"?>
<!-- Generator: Adobe Illustrator 25.2.1, SVG Export Plug-In . SVG Version: 6.00 Build 0)  -->
<svg version="1.1" id="Laag_1" xmlns="http://www.w3.org/2000/svg" xmlns:xlink="http://www.w3.org/1999/xlink" x="0px" y="0px"
	 viewBox="0 0 112.3 124" style="enable-background:new 0 0 112.3 124;" xml:space="preserve">
<style type="text/css">
	.st0{fill:#00AAE4;}
</style>
<g transform="translate(-24.197)">
	<g transform="translate(24.197 0)">
		<path class="st0" d="M104.2,16.7l2,5.7c0.1,0.2,0.2,0.4,0.5,0.5l5.1,2.3c0.5,0.3,0.7,0.9,0.4,1.4c-0.1,0.2-0.2,0.3-0.4,0.4
			l-5.1,2.3c-0.2,0.1-0.4,0.3-0.5,0.5l-2,5.7c-0.1,0.4-0.6,0.7-1,0.6c-0.3-0.1-0.5-0.3-0.6-0.6l-2-5.7c-0.1-0.2-0.2-0.4-0.5-0.5
			L95.1,27c-0.5-0.3-0.7-0.9-0.4-1.4c0.1-0.2,0.2-0.3,0.4-0.4l5.1-2.3c0.2-0.1,0.4-0.3,0.5-0.5l2-5.7c0.1-0.4,0.6-0.7,1-0.6
			C103.9,16.2,104.1,16.4,104.2,16.7z"/>
		<path class="st0" d="M28.6,0.4l1.5,4.2c0.1,0.2,0.2,0.3,0.4,0.4l3.7,1.7c0.4,0.2,0.5,0.6,0.3,1c-0.1,0.1-0.2,0.2-0.3,0.3l-3.7,1.7
			c-0.2,0.1-0.3,0.2-0.4,0.4l-1.5,4.2c-0.1,0.3-0.4,0.5-0.7,0.4c-0.2-0.1-0.4-0.2-0.4-0.4L26,10.2c-0.1-0.2-0.2-0.3-0.4-0.4
			l-3.7-1.7c-0.4-0.2-0.5-0.6-0.3-1c0.1-0.1,0.2-0.2,0.3-0.3l3.7-1.7C25.8,5,25.9,4.8,26,4.7l1.5-4.2c0.1-0.3,0.4-0.5,0.7-0.4
			C28.4,0.1,28.6,0.2,28.6,0.4z"/>
		<path class="st0" d="M89.9,9.3c0,1.6-1.3,3-3,3s-3-1.3-3-3c0-1.6,1.3-3,3-3C88.5,6.3,89.9,7.6,89.9,9.3
			C89.9,9.3,89.9,9.3,89.9,9.3z"/>
		<path class="st0" d="M8.8,25.8c0,2.4-2,4.4-4.4,4.4S0,28.2,0,25.8c0-2.4,2-4.4,4.4-4.4S8.8,23.4,8.8,25.8L8.8,25.8z"/>
	</g>
	<g transform="translate(28.115 23.667)">
		<path class="st0" d="M50.2,100.3C22.5,100.3,0,77.9,0,50.2S22.5,0,50.2,0s50.2,22.5,50.2,50.2C100.3,77.9,77.9,100.3,50.2,100.3z
			 M50.2,4.9c-25,0-45.3,20.3-45.3,45.3s20.3,45.3,45.3,45.3s45.3-20.3,45.3-45.3C95.4,25.2,75.2,4.9,50.2,4.9z"/>
		<path class="st0" d="M38.9,38.9c-1.3,0-2.4-1.1-2.4-2.4c0,0,0,0,0,0c0-3.7-3-6.8-6.8-6.8s-6.8,3-6.8,6.8c0,0,0,0,0,0
			c0,1.3-1.1,2.4-2.5,2.4c-1.3,0-2.4-1.1-2.4-2.4c0-6.4,5.2-11.7,11.7-11.7s11.7,5.2,11.7,11.7l0,0C41.3,37.8,40.2,38.9,38.9,38.9z"
			/>
		<path class="st0" d="M79.9,38.9c-1.3,0-2.4-1.1-2.4-2.4c0,0,0,0,0,0c0-3.7-3-6.8-6.8-6.8c-3.7,0-6.8,3-6.8,6.8
			c0,1.3-1.1,2.4-2.5,2.4c-1.3,0-2.4-1.1-2.4-2.4c0-6.4,5.2-11.6,11.7-11.6c6.4,0,11.6,5.2,11.6,11.6C82.3,37.8,81.2,38.9,79.9,38.9
			z"/>
		<path class="st0" d="M82.6,48.6H17.8c-1.3,0-2.4,1.1-2.4,2.4l0,0c0,19.2,15.6,34.9,34.8,34.9S85,70.3,85,51.1
			C85,49.7,83.9,48.6,82.6,48.6C82.6,48.6,82.6,48.6,82.6,48.6z M31.7,74.6c3.3-5.3,10.5-8.8,18.5-8.8s15.2,3.5,18.5,8.8
			C57.8,83.2,42.5,83.2,31.7,74.6z M72.3,71.3C67.9,65,59.5,61,50.2,61s-17.7,4-22.1,10.3c-4.5-4.9-7.2-11.2-7.8-17.8h59.8
			C79.5,60.1,76.8,66.4,72.3,71.3L72.3,71.3z"/>
	</g>
</g>
</svg>
